<svg xmlns="http://www.w3.org/2000/svg">
  <symbol id="arrow-rising" viewBox="0 0 9 11">
    <path d="M0.88044 10.371L7.92382 1.216M7.92382 1.216L2.57827 2.20426M7.92382 1.216L8.33901 6.63626" fill="none" stroke="currentColor"/>
  </symbol>
  <symbol id="arrow-falling" viewBox="0 0 9 10">
    <path d="M8.18552 0.429754L0.618786 9.15718M0.618786 9.15718L6.01298 8.48324M0.618786 9.15718L0.521307 3.72192" fill="none" stroke="currentColor"/>
  </symbol>
  <symbol id="arrow-chart" viewBox="0 0 24 18">
    <path d="M-8.26528e-07 9L22 9M22 9L14.3 1M22 9L14.3 17" fill="none" stroke="currentColor" stroke-width="2"/>
  </symbol>
  <symbol id="arrow-sort" viewBox="0 0 15 9">
    <path d="M13.7002 0.753784L6.81784 6.75378L0.700195 0.753784" fill="none" stroke="currentColor" stroke-width="2"/>
  </symbol>
  <symbol id="dark-theme" viewBox="0 0 22 22">
    <path d="M17 11.004a6 6 0 11-12 0 6 6 0 0112 0z" fill="currentColor"></path>
    <path fill-rule="evenodd" clip-rule="evenodd" d="M11 .254a.75.75 0 01.75.75v1a.75.75 0 11-1.5 0v-1a.75.75 0 01.75-.75zM3.399 3.403a.75.75 0 011.06 0l.393.392a.75.75 0 01-1.06 1.06l-.393-.392a.75.75 0 010-1.06zm15.202 0a.75.75 0 010 1.06l-.393.393a.75.75 0 01-1.06-1.06l.393-.393a.75.75 0 011.06 0zM.25 11.003a.75.75 0 01.75-.75h1a.75.75 0 110 1.5H1a.75.75 0 01-.75-.75zm19 0a.75.75 0 01.75-.75h1a.75.75 0 110 1.5h-1a.75.75 0 01-.75-.75zm-2.102 6.149a.75.75 0 011.06 0l.393.393a.75.75 0 11-1.06 1.06l-.393-.393a.75.75 0 010-1.06zm-12.296 0a.75.75 0 010 1.06l-.393.393a.75.75 0 11-1.06-1.06l.392-.393a.75.75 0 011.06 0zM11 19.254a.75.75 0 01.75.75v1a.75.75 0 11-1.5 0v-1a.75.75 0 01.75-.75z" fill="currentColor"></path>
  </symbol>
  <symbol id="light-theme" viewBox="0 0 24 24">
    <path fill="currentColor" d="M12 3.75a.75.75 0 00.75-.75v-.75a.75.75 0 10-1.5 0V3a.75.75 0 00.75.75zM12 20.25a.75.75 0 00-.75.75v.75a.75.75 0 101.5 0V21a.75.75 0 00-.75-.75zM21.75 11.25H21a.75.75 0 100 1.5h.75a.75.75 0 100-1.5zM3 11.25h-.75a.75.75 0 100 1.5H3a.75.75 0 100-1.5zM18.369 4.575l-.53.53a.75.75 0 101.06 1.06l.53-.529a.75.75 0 10-1.06-1.061zM5.11 17.834l-.53.53a.75.75 0 101.06 1.061l.53-.53a.75.75 0 10-1.06-1.061zM18.896 17.834a.75.75 0 00-1.06 1.06l.53.531a.75.75 0 101.061-1.061l-.531-.53zM5.11 6.167a.75.75 0 001.06-1.061l-.53-.531a.75.75 0 10-1.06 1.061l.53.53zM18.526 13.112a.75.75 0 00-.75-.182 5.19 5.19 0 01-1.554.231 5.389 5.389 0 01-5.384-5.383 5.186 5.186 0 01.233-1.553.75.75 0 00-.931-.943 6.882 6.882 0 108.58 8.58.75.75 0 00-.194-.75z"></path>
  </symbol>
  <symbol id="search" viewBox="0 0 22 24">
    <circle cx="7.98611" cy="7.98611" r="6.48611" fill="none" stroke="currentColor" stroke-width="3"/>
    <path d="M15.2778 15.9722L20.8334 22.9167" stroke="currentColor" stroke-width="3"/>
  </symbol>
  <symbol id="four" viewBox="0 0 220 289">
    <path d="M151.6 288.4C143.6 288.4 137.333 286.267 132.8 282C128.267 277.467 126 271.067 126 262.8V231.6H27.2C18.9333 231.6 12.2667 229.867 7.2 226.4C2.4 222.933 0 217.467 0 210C0 205.733 1.06667 201.067 3.2 196C5.6 190.933 9.73333 184.267 15.6 176L125.2 17.2C128.933 11.6 133.067 7.33334 137.6 4.40001C142.133 1.46667 147.333 0 153.2 0C160.133 0 165.867 2.13334 170.4 6.40001C174.933 10.4 177.2 16.8 177.2 25.6V189.2H196.8C204.533 189.2 210.267 191.067 214 194.8C218 198.267 220 203.467 220 210.4C220 217.333 218 222.667 214 226.4C210.267 229.867 204.533 231.6 196.8 231.6H177.2V262.8C177.2 271.067 174.933 277.467 170.4 282C165.867 286.267 159.6 288.4 151.6 288.4ZM126 189.2V64.4H137.6L43.2 202.8V189.2H126Z" fill="currentColor"/>
  </symbol>
</svg>